<?xml version="1.0" ?><svg viewBox="0 0 129.88 129.88" xmlns="http://www.w3.org/2000/svg" xmlns:xlink="http://www.w3.org/1999/xlink"><defs><style>.cls-1{fill:url(#linear-gradient);}.cls-2{fill:url(#linear-gradient-2);}.cls-3{fill:#fff;}</style><linearGradient gradientUnits="userSpaceOnUse" id="linear-gradient" x1="21.05" x2="108.85" y1="89.82" y2="39.13"><stop offset="0.02" stop-color="red"/><stop offset="1" stop-color="#9e005d"/></linearGradient><linearGradient id="linear-gradient-2" x1="38.1" x2="91.8" xlink:href="#linear-gradient" y1="64.47" y2="64.47"/></defs><title/><g data-name="Layer 1" id="Layer_1"><path class="cls-1" d="M86.34,13.78H43.56A13.64,13.64,0,0,0,31.75,20.6L10.36,57.65a13.62,13.62,0,0,0,0,13.64l21.39,37.05a13.64,13.64,0,0,0,11.81,6.82H86.34a13.65,13.65,0,0,0,11.82-6.82l21.39-37a13.62,13.62,0,0,0,0-13.64l-21.39-37A13.65,13.65,0,0,0,86.34,13.78Z"/><rect class="cls-2" height="46.83" rx="6.17" width="53.7" x="38.1" y="41.06"/><path class="cls-3" d="M85.64,42.65a4.58,4.58,0,0,1,4.57,4.58V81.71a4.58,4.58,0,0,1-4.57,4.58H44.27a4.58,4.58,0,0,1-4.57-4.58V47.23a4.58,4.58,0,0,1,4.57-4.58H85.64m0-3.19H44.27a7.78,7.78,0,0,0-7.76,7.77V81.71a7.77,7.77,0,0,0,7.76,7.77H85.64a7.77,7.77,0,0,0,7.76-7.77V47.23a7.78,7.78,0,0,0-7.76-7.77Z"/><path class="cls-3" d="M50.26,51.41V48.14a1.66,1.66,0,0,0-1.63-1.63H45.36a1.56,1.56,0,0,0-1.15.48,1.6,1.6,0,0,0-.48,1.15v3.27a1.6,1.6,0,0,0,.48,1.15,1.56,1.56,0,0,0,1.15.48h3.27a1.66,1.66,0,0,0,1.63-1.63Z"/><path class="cls-3" d="M50.26,61.21V57.94a1.66,1.66,0,0,0-1.63-1.63H45.36a1.56,1.56,0,0,0-1.15.48,1.6,1.6,0,0,0-.48,1.15v3.27a1.56,1.56,0,0,0,.48,1.14,1.54,1.54,0,0,0,1.15.49h3.27a1.67,1.67,0,0,0,1.63-1.63Z"/><path class="cls-3" d="M50.26,71V67.74a1.66,1.66,0,0,0-1.63-1.63H45.36a1.56,1.56,0,0,0-1.15.48,1.58,1.58,0,0,0-.48,1.15V71a1.56,1.56,0,0,0,.48,1.15,1.54,1.54,0,0,0,1.15.49h3.27A1.67,1.67,0,0,0,50.26,71Z"/><path class="cls-3" d="M50.26,80.8V77.54a1.67,1.67,0,0,0-1.63-1.64H45.36a1.54,1.54,0,0,0-1.15.49,1.56,1.56,0,0,0-.48,1.15V80.8A1.58,1.58,0,0,0,44.21,82a1.56,1.56,0,0,0,1.15.48h3.27a1.66,1.66,0,0,0,1.63-1.63Z"/><path class="cls-3" d="M76.38,61.21V48.14a1.64,1.64,0,0,0-1.63-1.63H55.15A1.56,1.56,0,0,0,54,47a1.61,1.61,0,0,0-.49,1.15V61.21A1.57,1.57,0,0,0,54,62.35a1.53,1.53,0,0,0,1.14.49h19.6a1.66,1.66,0,0,0,1.63-1.63Z"/><path class="cls-3" d="M76.38,80.8V67.74a1.58,1.58,0,0,0-.48-1.15,1.6,1.6,0,0,0-1.15-.48H55.15a1.56,1.56,0,0,0-1.14.48,1.59,1.59,0,0,0-.49,1.15V80.8A1.59,1.59,0,0,0,54,82a1.56,1.56,0,0,0,1.14.48h19.6A1.6,1.6,0,0,0,75.9,82,1.58,1.58,0,0,0,76.38,80.8Z"/><path class="cls-3" d="M86.18,51.41V48.14a1.64,1.64,0,0,0-1.63-1.63H81.28a1.66,1.66,0,0,0-1.63,1.63v3.27A1.66,1.66,0,0,0,81.28,53h3.27a1.64,1.64,0,0,0,1.63-1.63Z"/><path class="cls-3" d="M86.18,61.21V57.94a1.64,1.64,0,0,0-1.63-1.63H81.28a1.66,1.66,0,0,0-1.63,1.63v3.27a1.67,1.67,0,0,0,1.63,1.63h3.27a1.66,1.66,0,0,0,1.63-1.63Z"/><path class="cls-3" d="M86.18,71V67.74a1.58,1.58,0,0,0-.48-1.15,1.6,1.6,0,0,0-1.15-.48H81.28a1.66,1.66,0,0,0-1.63,1.63V71a1.67,1.67,0,0,0,1.63,1.64h3.27A1.66,1.66,0,0,0,86.18,71Z"/><path class="cls-3" d="M86.18,80.8V77.54a1.66,1.66,0,0,0-1.63-1.64H81.28a1.67,1.67,0,0,0-1.63,1.64V80.8a1.66,1.66,0,0,0,1.63,1.63h3.27A1.6,1.6,0,0,0,85.7,82,1.58,1.58,0,0,0,86.18,80.8Z"/></g></svg>